<svg width="281" height="361" viewBox="0 0 281 361" fill="none" xmlns="http://www.w3.org/2000/svg">
<g clip-path="url(#clip0)">
<path d="M164.546 282.954C177.542 274.353 180.49 255.917 171.131 241.777C161.772 227.637 143.65 223.148 130.654 231.75C117.658 240.351 114.71 258.787 124.069 272.927C133.428 287.067 151.55 291.556 164.546 282.954Z" fill="#093F68"/>
<path d="M165.352 284.172C160.481 287.396 154.679 288.976 148.68 288.713C142.681 288.449 136.755 286.353 131.65 282.691C126.545 279.028 122.491 273.963 120.001 268.136C117.511 262.309 116.696 255.982 117.66 249.955C118.624 243.928 121.323 238.471 125.416 234.275C129.509 230.079 134.812 227.332 140.655 226.382C146.498 225.431 152.617 226.32 158.24 228.935C163.863 231.551 168.736 235.776 172.244 241.075C176.948 248.182 178.865 256.715 177.572 264.797C176.279 272.88 171.884 279.849 165.352 284.172ZM131.493 233.016C127.064 235.947 123.681 240.241 121.771 245.355C119.861 250.468 119.509 256.172 120.761 261.745C122.013 267.318 124.811 272.509 128.803 276.663C132.794 280.817 137.8 283.746 143.186 285.08C148.572 286.414 154.097 286.094 159.062 284.159C164.027 282.225 168.21 278.763 171.08 274.211C173.951 269.659 175.381 264.223 175.19 258.588C174.998 252.954 173.194 247.375 170.005 242.557C167.893 239.346 165.218 236.55 162.135 234.328C159.052 232.106 155.621 230.503 152.039 229.609C148.457 228.716 144.794 228.551 141.26 229.123C137.726 229.695 134.39 230.993 131.444 232.943L131.493 233.016Z" fill="#093F68"/>
<path d="M130.854 115.521C124.803 106.4 116.846 98.7324 107.639 93.1504C98.4326 87.5683 88.2399 84.2321 77.9019 83.4168C67.564 82.6015 57.3772 84.3305 48.1817 88.4612C38.9863 92.592 31.0458 99.006 25.0152 107.174C18.9846 115.343 15.0367 125.031 13.4972 135.441C11.9578 145.85 12.8708 156.682 16.161 167.043C19.4512 177.405 25.0244 186.998 32.4207 195.032C39.817 203.067 48.8246 209.312 58.7003 213.252C78.6662 221.143 96.085 235.39 108.297 253.817L161.024 218.918C148.806 200.814 142.476 179.474 143.035 158.273C143.626 143.383 139.337 128.329 130.854 115.521Z" fill="#68E1FD"/>
<path d="M161.886 220.099L109.159 254.998C108.862 255.194 108.493 255.254 108.131 255.165C107.77 255.075 107.447 254.843 107.234 254.52C95.1635 236.388 78.005 222.356 58.3444 214.539C46.4646 209.82 35.8453 201.852 27.688 191.535C19.5307 181.219 14.161 168.966 12.1867 156.164C10.2124 143.362 11.7121 130.521 16.5163 119.094C21.3204 107.668 29.2372 98.1118 39.3708 91.5076C49.5043 84.9034 61.4501 81.5146 73.8565 81.7248C86.2628 81.935 98.6344 85.7357 109.571 92.6969C120.508 99.6581 129.574 109.502 135.742 121.114C141.911 132.727 144.936 145.644 144.476 158.405C143.952 179.287 150.186 200.298 162.199 218.14C162.413 218.463 162.5 218.851 162.441 219.218C162.382 219.585 162.183 219.902 161.886 220.099ZM108.666 251.821L159.154 218.404C147.315 200.276 141.215 179.109 141.773 158.092C142.351 143.519 138.13 128.788 129.792 116.277C124.659 108.545 118.123 101.865 110.588 96.6474C103.054 91.4302 94.6803 87.7875 85.9863 85.9446C70.1313 82.5911 54.0947 85.4276 41.0464 93.8934C27.9981 102.359 18.8878 115.838 15.5164 131.666C12.145 147.493 14.7577 164.518 22.8383 179.374C30.9188 194.23 43.8789 205.836 59.1569 211.899C78.9441 219.754 96.283 233.735 108.666 251.821Z" fill="#093F68"/>
<path d="M170.489 235.651L118.681 269.942C115.293 272.185 114.524 276.991 116.964 280.677L118.673 283.26C121.113 286.946 125.837 288.116 129.225 285.874L181.034 251.582C184.422 249.34 185.191 244.534 182.751 240.847L181.042 238.265C178.602 234.579 173.877 233.408 170.489 235.651Z" fill="white"/>
<path d="M181.84 252.8L130.032 287.092C128.106 288.361 125.712 288.749 123.373 288.169C121.034 287.59 118.941 286.091 117.553 284L115.844 281.418C114.459 279.325 113.894 276.812 114.275 274.431C114.656 272.05 115.95 269.998 117.874 268.724L169.683 234.433C171.607 233.16 174.002 232.77 176.342 233.35C178.683 233.929 180.776 235.431 182.161 237.524L183.87 240.106C185.252 242.201 185.814 244.713 185.434 247.092C185.053 249.472 183.761 251.524 181.84 252.8ZM119.487 271.16C118.16 272.043 117.267 273.462 117.004 275.107C116.741 276.752 117.129 278.488 118.083 279.936L119.792 282.519C120.753 283.963 122.199 284.998 123.816 285.399C125.433 285.8 127.088 285.532 128.419 284.656L180.228 250.364C180.889 249.929 181.45 249.356 181.88 248.679C182.309 248.002 182.598 247.233 182.731 246.417C182.863 245.6 182.836 244.752 182.651 243.921C182.467 243.09 182.128 242.293 181.654 241.573L179.945 238.991C178.984 237.547 177.538 236.511 175.921 236.111C174.304 235.71 172.649 235.978 171.318 236.854L119.487 271.16Z" fill="#093F68"/>
<path d="M159.944 219.719L108.136 254.011C104.748 256.253 103.979 261.06 106.419 264.746L108.128 267.328C110.568 271.014 115.293 272.185 118.681 269.942L170.489 235.651C173.877 233.408 174.646 228.602 172.206 224.916L170.497 222.334C168.057 218.647 163.332 217.477 159.944 219.719Z" fill="white"/>
<path d="M171.295 236.869L119.487 271.16C117.562 272.43 115.167 272.817 112.828 272.238C110.489 271.658 108.396 270.159 107.009 268.069L105.3 265.487C103.918 263.393 103.355 260.88 103.736 258.501C104.116 256.122 105.409 254.069 107.33 252.793L159.138 218.501C160.091 217.868 161.171 217.446 162.315 217.258C163.458 217.07 164.645 217.12 165.806 217.406C166.966 217.691 168.079 218.207 169.08 218.923C170.081 219.639 170.95 220.541 171.639 221.578L173.348 224.16C174.033 225.199 174.524 226.352 174.792 227.553C175.06 228.754 175.1 229.98 174.909 231.16C174.719 232.34 174.301 233.451 173.681 234.431C173.061 235.411 172.25 236.239 171.295 236.869ZM108.942 255.229C107.615 256.112 106.722 257.531 106.459 259.176C106.196 260.82 106.584 262.557 107.538 264.005L109.248 266.587C110.208 268.031 111.654 269.067 113.271 269.468C114.888 269.868 116.543 269.601 117.874 268.724L169.683 234.433C171.01 233.55 171.903 232.131 172.166 230.486C172.429 228.841 172.041 227.105 171.086 225.657L169.377 223.075C168.417 221.63 166.97 220.595 165.354 220.194C163.737 219.794 162.082 220.061 160.751 220.937L108.942 255.229Z" fill="#093F68"/>
<path d="M149.4 203.788L97.591 238.079C94.2029 240.322 93.4343 245.128 95.8742 248.814L97.5833 251.397C100.023 255.083 104.748 256.253 108.136 254.011L159.944 219.719C163.332 217.477 164.101 212.671 161.661 208.984L159.952 206.402C157.512 202.716 152.788 201.545 149.4 203.788Z" fill="white"/>
<path d="M160.751 220.938L108.942 255.229C107.02 256.501 104.627 256.891 102.289 256.314C99.9513 255.737 97.859 254.239 96.4719 252.15L94.7548 249.555C93.3729 247.461 92.8106 244.949 93.1911 242.57C93.5717 240.19 94.864 238.137 96.7848 236.861L148.593 202.57C150.519 201.3 152.913 200.913 155.252 201.492C157.591 202.072 159.684 203.571 161.072 205.661L162.789 208.256C164.17 210.349 164.731 212.86 164.349 215.238C163.967 217.615 162.673 219.665 160.751 220.938ZM98.3972 239.297C97.0701 240.18 96.1774 241.6 95.9144 243.244C95.6514 244.889 96.0394 246.625 96.9937 248.074L98.7109 250.668C99.6703 252.111 101.117 253.145 102.732 253.544C104.348 253.942 106.001 253.672 107.33 252.793L159.138 218.502C160.466 217.622 161.361 216.206 161.626 214.563C161.89 212.92 161.503 211.185 160.55 209.738L158.833 207.143C157.872 205.699 156.426 204.663 154.809 204.263C153.192 203.862 151.537 204.13 150.206 205.006L98.3972 239.297Z" fill="#093F68"/>
<path d="M107.691 226C107.431 226.179 107.11 226.253 106.786 226.208C106.462 226.163 106.155 226.002 105.918 225.754L44.6855 160.872C44.4766 160.65 44.3352 160.372 44.2812 160.076C44.2271 159.78 44.2632 159.481 44.3843 159.221C44.5054 158.961 44.7054 158.753 44.9562 158.627C45.2071 158.501 45.4962 158.462 45.7828 158.517L72.6744 163.488L70.5423 139.204C70.5199 138.949 70.5637 138.698 70.6693 138.476C70.7748 138.255 70.9381 138.072 71.1423 137.946C71.3464 137.82 71.5839 137.755 71.83 137.759C72.0761 137.763 72.3219 137.835 72.5417 137.968L93.2765 150.518L96.9175 124.934C96.9577 124.635 97.0911 124.365 97.2981 124.163C97.5051 123.962 97.7747 123.84 98.067 123.815C98.3594 123.791 98.659 123.865 98.9215 124.027C99.1841 124.189 99.3957 124.43 99.5251 124.715L137.003 205.004C137.086 205.18 137.135 205.367 137.148 205.557C137.162 205.747 137.139 205.934 137.081 206.109C137.023 206.284 136.932 206.443 136.812 206.576C136.692 206.709 136.546 206.815 136.382 206.887C136.218 206.958 136.039 206.995 135.856 206.994C135.673 206.993 135.49 206.955 135.316 206.881C135.141 206.808 134.98 206.701 134.841 206.566C134.703 206.431 134.589 206.272 134.506 206.096L99.0576 130.016L95.7908 153.197C95.7582 153.419 95.674 153.625 95.5453 153.799C95.4165 153.972 95.2469 154.108 95.0507 154.195C94.8565 154.283 94.6415 154.319 94.4232 154.302C94.2049 154.286 93.9896 154.215 93.795 154.098L73.4999 141.677L75.5598 165.099C75.5783 165.31 75.5513 165.52 75.4808 165.712C75.4102 165.904 75.2979 166.074 75.152 166.21C75.0072 166.346 74.8324 166.445 74.6403 166.499C74.4481 166.554 74.2433 166.563 74.0405 166.525L49.509 162.006L107.804 223.787C108.07 224.067 108.225 224.436 108.236 224.812C108.247 225.189 108.113 225.544 107.863 225.798L107.691 226Z" fill="white"/>
<path d="M50.7702 249.381C33.7096 260.674 19.491 263.709 10.9725 257.139C-2.17172 247.009 0.98019 216.284 19.1988 176.971C19.2738 176.806 19.3806 176.661 19.5133 176.543C19.6459 176.426 19.8017 176.338 19.9718 176.286C20.1419 176.234 20.323 176.217 20.5047 176.238C20.6864 176.258 20.8652 176.316 21.0308 176.406C21.1964 176.497 21.3456 176.619 21.4699 176.765C21.5942 176.912 21.6912 177.08 21.7553 177.261C21.8194 177.441 21.8494 177.63 21.8435 177.817C21.8376 178.003 21.796 178.184 21.721 178.349C4.37232 215.79 0.749698 245.828 12.5128 254.893C24.2759 263.957 49.7592 251.259 77.6968 222.714C90.5756 209.447 102.31 195.037 112.785 179.626C122.602 165.426 131.33 150.41 138.897 134.703C157.453 95.8494 161.582 64.705 149.446 55.3443C138.013 46.5345 113.837 58.0699 86.3386 85.4312C86.0802 85.6859 85.7262 85.8158 85.3545 85.7925C84.9828 85.7692 84.6238 85.5945 84.3566 85.3068C84.0893 85.0191 83.9356 84.6421 83.9294 84.2586C83.9231 83.8751 84.0648 83.5166 84.3232 83.262C113.249 54.4826 138.156 43.1994 150.951 53.0696C164.507 63.5049 160.84 95.324 141.37 136.079C133.734 151.922 124.922 167.063 115.007 181.378C104.455 196.909 92.6325 211.429 79.6557 224.798C70.8764 233.983 61.2044 242.215 50.7702 249.381Z" fill="#093F68"/>
<path d="M179.538 164.169C168.82 171.028 157.406 176.753 145.454 181.264C128.127 187.95 110.196 193.135 91.8359 196.767C74.7818 200.289 57.4018 202.484 39.8366 203.335C-5.27172 205.306 -35.975 196.254 -40.2953 179.705C-44.3942 164.027 -24.2794 145.528 13.6251 130.144C13.7916 130.076 13.9721 130.044 14.1561 130.05C14.3401 130.055 14.5241 130.098 14.6976 130.176C14.871 130.254 15.0305 130.365 15.1669 130.504C15.3033 130.642 15.4141 130.805 15.4927 130.983C15.5714 131.161 15.6165 131.351 15.6254 131.541C15.6343 131.731 15.607 131.919 15.5448 132.092C15.4826 132.266 15.3869 132.423 15.2631 132.553C15.1393 132.684 14.9898 132.786 14.8232 132.854C-20.6193 147.239 -41.2066 165.438 -37.6053 179.221C-33.7308 194.05 -3.4485 202.418 39.5439 200.533C56.9666 199.695 74.2058 197.523 91.1218 194.035C109.34 190.418 127.133 185.271 144.332 178.644C181.622 164.034 203.312 145.386 199.584 131.143C195.856 116.9 166.793 108.356 125.543 109.736C125.362 109.74 125.18 109.708 125.006 109.64C124.831 109.573 124.669 109.471 124.528 109.342C124.387 109.212 124.27 109.057 124.184 108.886C124.097 108.714 124.043 108.529 124.025 108.341C124.006 108.153 124.023 107.966 124.075 107.791C124.127 107.616 124.213 107.455 124.328 107.319C124.443 107.183 124.584 107.074 124.744 106.998C124.904 106.922 125.079 106.88 125.26 106.875C168.562 105.434 198.068 114.526 202.264 130.595C204.941 140.962 196.599 152.877 179.538 164.169Z" fill="#093F68"/>
<path d="M36.7043 265.733C41.3165 262.68 42.3629 256.137 39.0414 251.119C35.7199 246.101 29.2883 244.508 24.6761 247.56C20.0639 250.613 19.0175 257.156 22.339 262.174C25.6605 267.192 32.092 268.786 36.7043 265.733Z" fill="#FFBC0E"/>
<path d="M37.4769 266.973C35.6038 268.213 33.3727 268.821 31.0659 268.719C28.759 268.618 26.48 267.812 24.5169 266.403C22.5539 264.995 20.995 263.047 20.0374 260.807C19.0798 258.566 18.7666 256.133 19.1372 253.815C19.5079 251.497 20.5458 249.399 22.1198 247.786C23.6937 246.172 25.733 245.116 27.9798 244.75C30.2265 244.385 32.5798 244.726 34.742 245.732C36.9042 246.738 38.7783 248.362 40.1272 250.4C41.9325 253.134 42.6672 256.414 42.1704 259.521C41.6735 262.628 39.9856 265.308 37.4769 266.973ZM25.4487 248.801C24.0184 249.747 22.9257 251.134 22.3087 252.786C21.6917 254.438 21.5781 256.28 21.9824 258.08C22.3867 259.88 23.2906 261.557 24.5799 262.898C25.8691 264.24 27.4859 265.186 29.2256 265.617C30.9653 266.048 32.7499 265.945 34.3536 265.32C35.9574 264.695 37.3083 263.577 38.2356 262.107C39.1628 260.636 39.6247 258.88 39.5629 257.06C39.5011 255.241 38.9184 253.439 37.8883 251.882C36.5048 249.798 34.4185 248.304 32.0867 247.726C29.755 247.149 27.3679 247.535 25.4487 248.801Z" fill="#093F68"/>
<path d="M160.005 115.88C164.617 112.827 165.663 106.284 162.342 101.266C159.02 96.2478 152.589 94.6545 147.977 97.7073C143.365 100.76 142.318 107.303 145.64 112.321C148.961 117.339 155.393 118.933 160.005 115.88Z" fill="#F56132"/>
<path d="M160.843 117.147C158.97 118.386 156.739 118.994 154.432 118.893C152.125 118.791 149.846 117.985 147.883 116.577C145.92 115.168 144.361 113.221 143.404 110.98C142.446 108.739 142.133 106.306 142.504 103.989C142.874 101.671 143.912 99.5725 145.486 97.9589C147.06 96.3454 149.099 95.2891 151.346 94.9236C153.593 94.5581 155.946 94.8998 158.108 95.9055C160.271 96.9113 162.145 98.5359 163.494 100.574C165.302 103.307 166.039 106.588 165.542 109.696C165.045 112.804 163.355 115.484 160.843 117.147ZM148.815 98.974C147.385 99.9207 146.292 101.308 145.675 102.959C145.058 104.611 144.944 106.453 145.349 108.253C145.753 110.053 146.657 111.73 147.946 113.072C149.235 114.414 150.852 115.36 152.592 115.791C154.332 116.222 156.116 116.118 157.72 115.493C159.324 114.868 160.675 113.75 161.602 112.28C162.529 110.81 162.991 109.054 162.929 107.234C162.867 105.414 162.285 103.612 161.255 102.056C160.576 101.008 159.713 100.094 158.715 99.3659C157.718 98.6381 156.606 98.1112 155.443 97.8156C154.281 97.52 153.09 97.4616 151.942 97.6437C150.793 97.8258 149.708 98.2448 148.751 98.8766L148.815 98.974Z" fill="#093F68"/>
<path d="M-4.39534 148.377C0.21688 145.324 1.26324 138.781 -2.05824 133.763C-5.37972 128.745 -11.8113 127.152 -16.4235 130.204C-21.0357 133.257 -22.0821 139.8 -18.7606 144.818C-15.4391 149.836 -9.00756 151.43 -4.39534 148.377Z" fill="#70CC40"/>
<path d="M-3.58925 149.595C-5.46236 150.835 -7.6934 151.442 -10.0003 151.341C-12.3071 151.239 -14.5862 150.434 -16.5492 149.025C-18.5123 147.617 -20.0711 145.669 -21.0287 143.428C-21.9863 141.188 -22.2995 138.755 -21.9289 136.437C-21.5582 134.119 -20.5203 132.021 -18.9463 130.407C-17.3724 128.794 -15.3331 127.737 -13.0863 127.372C-10.8396 127.006 -8.48632 127.348 -6.32409 128.354C-4.16186 129.36 -2.28778 130.984 -0.938858 133.022C0.862763 135.757 1.59534 139.036 1.09866 142.142C0.601976 145.247 -1.08355 147.927 -3.58925 149.595ZM-15.6174 131.422C-17.0477 132.369 -18.1404 133.756 -18.7574 135.408C-19.3744 137.059 -19.488 138.902 -19.0837 140.702C-18.6794 142.502 -17.7755 144.179 -16.4862 145.52C-15.197 146.862 -13.5803 147.808 -11.8406 148.239C-10.1008 148.67 -8.31627 148.566 -6.7125 147.941C-5.10874 147.317 -3.75781 146.198 -2.83057 144.728C-1.90332 143.258 -1.44139 141.502 -1.5032 139.682C-1.565 137.862 -2.14775 136.06 -3.17778 134.504C-3.86169 133.471 -4.72596 132.571 -5.72124 131.857C-6.71652 131.143 -7.82331 130.628 -8.97843 130.342C-10.1336 130.056 -11.3144 130.004 -12.4535 130.19C-13.5926 130.375 -14.6677 130.794 -15.6174 131.422Z" fill="#093F68"/>
<path d="M64.0167 288.853C63.7198 289.049 63.3502 289.109 62.989 289.02C62.6279 288.93 62.3049 288.699 62.0911 288.376L56.8993 280.532C56.6855 280.209 56.5984 279.821 56.6571 279.453C56.7159 279.086 56.9157 278.769 57.2126 278.573C57.5095 278.376 57.8792 278.316 58.2403 278.406C58.6014 278.495 58.9244 278.727 59.1382 279.05L64.3058 286.857C64.4182 287.017 64.5 287.197 64.5464 287.384C64.5928 287.572 64.6028 287.765 64.5758 287.951C64.5488 288.137 64.4855 288.313 64.3894 288.468C64.2934 288.623 64.1667 288.754 64.0167 288.853Z" fill="#DFEAEF"/>
<path d="M75.3516 305.978C75.0547 306.174 74.685 306.234 74.3239 306.145C73.9627 306.056 73.6397 305.824 73.4259 305.501L68.2583 297.693C68.0445 297.37 67.9574 296.982 68.0162 296.615C68.0749 296.248 68.2747 295.931 68.5716 295.734C68.8685 295.538 69.2382 295.478 69.5993 295.567C69.9604 295.657 70.2834 295.888 70.4972 296.211L75.6648 304.019C75.8787 304.342 75.9658 304.73 75.907 305.097C75.8483 305.465 75.6485 305.781 75.3516 305.978Z" fill="#DFEAEF"/>
<path d="M78.5677 285.93L71.3919 290.68C71.095 290.876 70.7254 290.936 70.3642 290.847C70.0031 290.758 69.6801 290.526 69.4663 290.203C69.2525 289.88 69.1654 289.492 69.2241 289.124C69.2829 288.757 69.4827 288.44 69.7796 288.244L76.9553 283.494C77.2522 283.298 77.6218 283.238 77.983 283.327C78.3441 283.417 78.6671 283.648 78.8809 283.971C79.0947 284.294 79.1819 284.682 79.1231 285.05C79.0644 285.417 78.8646 285.734 78.5677 285.93Z" fill="#DFEAEF"/>
<path d="M62.8168 296.356L55.6411 301.105C55.3442 301.302 54.9745 301.362 54.6134 301.272C54.2523 301.183 53.9293 300.951 53.7154 300.628C53.5016 300.305 53.4145 299.917 53.4733 299.55C53.532 299.182 53.7318 298.866 54.0287 298.669L61.2045 293.919C61.5014 293.723 61.871 293.663 62.2322 293.752C62.5933 293.842 62.9163 294.074 63.1301 294.397C63.3439 294.72 63.431 295.107 63.3723 295.475C63.3135 295.842 63.1137 296.159 62.8168 296.356Z" fill="#DFEAEF"/>
<path d="M76.3254 45.8341C76.0285 46.0306 75.6589 46.0908 75.2977 46.0013C74.9366 45.9119 74.6136 45.6801 74.3998 45.3571L69.2322 37.5497C69.0184 37.2267 68.9313 36.8388 68.99 36.4714C69.0488 36.104 69.2486 35.7873 69.5455 35.5907C69.8424 35.3942 70.2121 35.3341 70.5732 35.4235C70.9343 35.513 71.2573 35.7447 71.4711 36.0678L76.6387 43.8752C76.8525 44.1982 76.9397 44.5861 76.8809 44.9534C76.8221 45.3208 76.6223 45.6376 76.3254 45.8341Z" fill="#DFEAEF"/>
<path d="M87.6683 62.9714C87.3714 63.1679 87.0018 63.228 86.6406 63.1386C86.2795 63.0491 85.9565 62.8174 85.7427 62.4943L80.567 54.6748C80.3532 54.3518 80.2661 53.9639 80.3249 53.5965C80.3836 53.2291 80.5834 52.9123 80.8803 52.7158C81.1772 52.5193 81.5469 52.4592 81.908 52.5486C82.2692 52.6381 82.5922 52.8698 82.806 53.1929L87.9816 61.0124C88.1954 61.3355 88.2825 61.7233 88.2238 62.0907C88.165 62.4581 87.9652 62.7749 87.6683 62.9714Z" fill="#DFEAEF"/>
<path d="M90.8764 42.9117L83.7007 47.6612C83.4038 47.8578 83.0341 47.9179 82.673 47.8284C82.3119 47.739 81.9889 47.5072 81.7751 47.1842C81.5612 46.8612 81.4741 46.4733 81.5329 46.1059C81.5916 45.7385 81.7914 45.4217 82.0883 45.2252L89.2641 40.4757C89.561 40.2792 89.9306 40.2191 90.2918 40.3085C90.6529 40.398 90.9759 40.6297 91.1897 40.9528C91.4035 41.2758 91.4906 41.6637 91.4319 42.0311C91.3731 42.3984 91.1733 42.7152 90.8764 42.9117Z" fill="#DFEAEF"/>
<path d="M75.1256 53.337L67.9498 58.0865C67.6529 58.283 67.2832 58.3432 66.9221 58.2537C66.5609 58.1643 66.2379 57.9325 66.0241 57.6095C65.8103 57.2864 65.7232 56.8986 65.782 56.5312C65.8407 56.1638 66.0405 55.847 66.3374 55.6505L73.5132 50.901C73.8101 50.7045 74.1798 50.6443 74.5409 50.7338C74.902 50.8232 75.225 51.055 75.4389 51.378C75.6527 51.7011 75.7398 52.0889 75.681 52.4563C75.6223 52.8237 75.4225 53.1405 75.1256 53.337Z" fill="#DFEAEF"/>
<path d="M196.813 185.963C196.516 186.16 196.147 186.22 195.786 186.13C195.424 186.041 195.101 185.809 194.888 185.486L190.607 179.018C190.393 178.695 190.306 178.308 190.365 177.94C190.423 177.573 190.623 177.256 190.92 177.06C191.217 176.863 191.587 176.803 191.948 176.892C192.309 176.982 192.632 177.214 192.846 177.537L197.126 184.004C197.34 184.327 197.427 184.715 197.369 185.082C197.31 185.45 197.11 185.767 196.813 185.963Z" fill="#DFEAEF"/>
<path d="M206.205 200.153C205.908 200.349 205.539 200.409 205.177 200.32C204.816 200.23 204.493 199.999 204.279 199.676L199.999 193.208C199.785 192.885 199.698 192.497 199.757 192.13C199.815 191.762 200.015 191.446 200.312 191.249C200.609 191.053 200.979 190.993 201.34 191.082C201.701 191.171 202.024 191.403 202.238 191.726L206.518 198.194C206.732 198.517 206.819 198.905 206.761 199.272C206.702 199.639 206.502 199.956 206.205 200.153Z" fill="#DFEAEF"/>
<path d="M208.862 183.541L202.917 187.475C202.621 187.672 202.251 187.732 201.89 187.643C201.529 187.553 201.206 187.321 200.992 186.998C200.778 186.675 200.691 186.287 200.75 185.92C200.808 185.553 201.008 185.236 201.305 185.039L207.249 181.105C207.546 180.908 207.916 180.848 208.277 180.938C208.638 181.027 208.961 181.259 209.175 181.582C209.389 181.905 209.476 182.293 209.417 182.66C209.358 183.028 209.159 183.344 208.862 183.541Z" fill="#DFEAEF"/>
<path d="M195.82 192.173L189.876 196.107C189.579 196.304 189.209 196.364 188.848 196.275C188.487 196.185 188.164 195.953 187.95 195.63C187.736 195.307 187.649 194.92 187.708 194.552C187.767 194.185 187.966 193.868 188.263 193.671L194.208 189.737C194.505 189.54 194.874 189.48 195.235 189.57C195.597 189.659 195.92 189.891 196.133 190.214C196.347 190.537 196.434 190.925 196.376 191.292C196.317 191.66 196.117 191.976 195.82 192.173Z" fill="#DFEAEF"/>
</g>
<defs>
<clipPath id="clip0">
<rect width="252" height="265" fill="white" transform="translate(-76 139.088) rotate(-33.5)"/>
</clipPath>
</defs>
</svg>
