<svg width="253" height="266" viewBox="0 0 253 266" fill="none" xmlns="http://www.w3.org/2000/svg">
<g clip-path="url(#clip0)">
<path d="M121.384 253.268C136.969 253.268 149.602 239.522 149.602 222.566C149.602 205.609 136.969 191.863 121.384 191.863C105.799 191.863 93.1654 205.609 93.1654 222.566C93.1654 239.522 105.799 253.268 121.384 253.268Z" fill="#093F68"/>
<path d="M121.384 254.729C115.543 254.729 109.833 252.844 104.976 249.313C100.119 245.782 96.3333 240.764 94.098 234.892C91.8626 229.02 91.2777 222.559 92.4173 216.326C93.5569 210.092 96.3697 204.367 100.5 199.873C104.631 195.379 109.893 192.318 115.622 191.078C121.351 189.839 127.29 190.475 132.686 192.907C138.083 195.339 142.695 199.458 145.941 204.742C149.186 210.027 150.918 216.239 150.918 222.595C150.918 231.117 147.806 239.291 142.268 245.317C136.729 251.343 129.217 254.729 121.384 254.729ZM121.384 193.382C116.074 193.382 110.883 195.095 106.467 198.305C102.052 201.515 98.6107 206.078 96.5785 211.416C94.5463 216.754 94.0146 222.627 95.0506 228.294C96.0866 233.961 98.6437 239.166 102.399 243.251C106.154 247.337 110.938 250.119 116.146 251.246C121.354 252.373 126.753 251.795 131.659 249.584C136.565 247.373 140.758 243.629 143.708 238.825C146.658 234.021 148.233 228.373 148.233 222.595C148.244 218.751 147.557 214.943 146.213 211.389C144.868 207.834 142.892 204.604 140.398 201.882C137.903 199.16 134.94 197 131.677 195.527C128.415 194.053 124.917 193.295 121.384 193.295V193.382Z" fill="#093F68"/>
<path d="M185.701 95.0525C185.69 84.1068 183.287 73.321 178.69 63.5846C174.094 53.8482 167.436 45.4404 159.265 39.0547C151.094 32.6689 141.645 28.4882 131.697 26.8575C121.75 25.2268 111.588 26.1927 102.051 29.6756C92.5135 33.1585 83.874 39.0586 76.8449 46.8892C69.8158 54.7198 64.5986 64.2565 61.6235 74.7126C58.6484 85.1687 58.0008 96.2446 59.734 107.027C61.4673 117.809 65.5317 127.988 71.5921 136.724C83.886 154.324 90.5481 175.819 90.5611 197.925H153.791C153.595 176.085 160.095 154.797 172.263 137.425C180.974 125.335 185.706 110.415 185.701 95.0525Z" fill="#68E1FD"/>
<path d="M153.858 199.385H90.6282C90.2721 199.385 89.9307 199.232 89.6789 198.958C89.4272 198.684 89.2857 198.312 89.2857 197.925C89.2287 176.143 82.6654 154.971 70.5853 137.601C63.2833 127.109 58.826 114.603 57.7177 101.498C56.6094 88.3932 58.8944 75.2123 64.314 63.447C69.7337 51.6816 78.0717 41.8016 88.3845 34.9247C98.6974 28.0479 110.573 24.4488 122.669 24.5347C134.764 24.6206 146.596 28.3881 156.825 35.4109C167.055 42.4337 175.274 52.4314 180.552 64.2727C185.83 76.114 187.956 89.3262 186.691 102.414C185.425 115.502 180.818 127.944 173.391 138.331C161.429 155.455 155.03 176.416 155.201 197.925C155.201 198.312 155.059 198.684 154.807 198.958C154.556 199.232 154.214 199.385 153.858 199.385ZM91.9706 196.464H152.516C152.649 174.813 159.245 153.796 171.31 136.578C179.835 124.745 184.446 110.131 184.399 95.0963C184.386 85.8161 182.623 76.6376 179.219 68.1283C175.816 59.619 170.844 51.9599 164.611 45.6247C153.241 34.0773 138.303 27.5914 122.749 27.449C107.196 27.3067 92.1595 33.5182 80.6122 44.8559C69.0649 56.1935 61.8472 71.8321 60.3859 88.6803C58.9245 105.528 63.3258 122.36 72.7198 135.848C84.8843 153.32 91.6263 174.548 91.9706 196.464Z" fill="#093F68"/>
<path d="M152.448 217.103H90.3194C86.2564 217.103 82.9627 220.687 82.9627 225.107V228.204C82.9627 232.624 86.2564 236.208 90.3194 236.208H152.448C156.511 236.208 159.805 232.624 159.805 228.204V225.107C159.805 220.687 156.511 217.103 152.448 217.103Z" fill="white"/>
<path d="M152.448 237.669H90.3194C88.0133 237.665 85.8027 236.666 84.1721 234.892C82.5414 233.118 81.6238 230.713 81.6202 228.204V225.107C81.6202 222.597 82.5368 220.189 84.1682 218.414C85.7996 216.639 88.0122 215.642 90.3194 215.642H152.448C154.756 215.642 156.968 216.639 158.6 218.414C160.231 220.189 161.148 222.597 161.148 225.107V228.204C161.144 230.713 160.226 233.118 158.596 234.892C156.965 236.666 154.755 237.665 152.448 237.669ZM90.3194 218.563C88.7254 218.567 87.1977 219.258 86.0706 220.484C84.9435 221.711 84.3087 223.373 84.3052 225.107V228.204C84.3087 229.938 84.9435 231.6 86.0706 232.826C87.1977 234.053 88.7254 234.743 90.3194 234.747H152.448C153.24 234.749 154.024 234.581 154.756 234.254C155.488 233.926 156.154 233.444 156.715 232.837C157.276 232.229 157.721 231.507 158.026 230.712C158.33 229.917 158.488 229.065 158.49 228.204V225.107C158.486 223.373 157.851 221.711 156.724 220.484C155.597 219.258 154.069 218.567 152.475 218.563H90.3194Z" fill="#093F68"/>
<path d="M152.448 197.998H90.3194C86.2564 197.998 82.9627 201.581 82.9627 206.002V209.099C82.9627 213.519 86.2564 217.103 90.3194 217.103H152.448C156.511 217.103 159.805 213.519 159.805 209.099V206.002C159.805 201.581 156.511 197.998 152.448 197.998Z" fill="white"/>
<path d="M152.448 218.563H90.3194C88.0133 218.56 85.8027 217.561 84.1721 215.787C82.5414 214.013 81.6238 211.608 81.6202 209.099V206.002C81.6238 203.493 82.5414 201.088 84.1721 199.314C85.8027 197.539 88.0133 196.541 90.3194 196.537H152.448C153.593 196.535 154.726 196.778 155.784 197.253C156.841 197.728 157.803 198.424 158.613 199.303C159.423 200.182 160.067 201.226 160.506 202.375C160.946 203.525 161.173 204.757 161.174 206.002V209.099C161.173 210.343 160.946 211.576 160.506 212.725C160.067 213.874 159.423 214.918 158.613 215.797C157.803 216.676 156.841 217.373 155.784 217.847C154.726 218.322 153.593 218.565 152.448 218.563ZM90.3194 199.458C88.7254 199.462 87.1977 200.153 86.0706 201.379C84.9435 202.606 84.3087 204.268 84.3052 206.002V209.099C84.3087 210.833 84.9435 212.495 86.0706 213.721C87.1977 214.948 88.7254 215.638 90.3194 215.642H152.448C154.042 215.638 155.57 214.948 156.697 213.721C157.824 212.495 158.459 210.833 158.463 209.099V206.002C158.459 204.268 157.824 202.606 156.697 201.379C155.57 200.153 154.042 199.462 152.448 199.458H90.3194Z" fill="#093F68"/>
<path d="M152.448 178.893H90.3194C86.2564 178.893 82.9627 182.476 82.9627 186.897V189.994C82.9627 194.414 86.2564 197.998 90.3194 197.998H152.448C156.511 197.998 159.805 194.414 159.805 189.994V186.897C159.805 182.476 156.511 178.893 152.448 178.893Z" fill="white"/>
<path d="M152.448 199.458H90.3194C88.0145 199.458 85.8039 198.463 84.1729 196.691C82.5419 194.92 81.6238 192.516 81.6202 190.008V186.897C81.6238 184.388 82.5414 181.983 84.1721 180.209C85.8027 178.434 88.0133 177.436 90.3194 177.432H152.448C154.755 177.436 156.965 178.434 158.596 180.209C160.226 181.983 161.144 184.388 161.148 186.897V190.008C161.144 192.516 160.226 194.92 158.595 196.691C156.964 198.463 154.753 199.458 152.448 199.458ZM90.3194 180.353C88.7254 180.357 87.1977 181.048 86.0706 182.274C84.9435 183.501 84.3087 185.163 84.3052 186.897V190.008C84.3087 191.741 84.9439 193.402 86.0714 194.626C87.1989 195.85 88.7266 196.537 90.3194 196.537H152.448C154.041 196.537 155.569 195.85 156.696 194.626C157.824 193.402 158.459 191.741 158.463 190.008V186.897C158.459 185.163 157.824 183.501 156.697 182.274C155.57 181.048 154.042 180.357 152.448 180.353H90.3194Z" fill="#093F68"/>
<path d="M105.409 174.394C105.093 174.4 104.785 174.285 104.539 174.069C104.294 173.852 104.126 173.548 104.066 173.211L88.8158 85.31C88.7639 85.01 88.7996 84.6999 88.918 84.4231C89.0364 84.1464 89.2315 83.9169 89.4759 83.767C89.7203 83.6171 90.0017 83.5543 90.2806 83.5874C90.5596 83.6206 90.8219 83.7479 91.0309 83.9516L110.711 102.94L122.337 81.5123C122.459 81.2875 122.634 81.1023 122.844 80.9761C123.054 80.8499 123.292 80.7873 123.532 80.7947C123.771 80.8022 124.005 80.8795 124.208 81.0185C124.411 81.1576 124.576 81.3533 124.686 81.5854L135.05 103.495L152.207 84.1707C152.405 83.9435 152.666 83.7919 152.95 83.7381C153.233 83.6844 153.525 83.7314 153.783 83.8722C154.04 84.0131 154.249 84.2402 154.379 84.5202C154.508 84.8001 154.552 85.118 154.502 85.4268L141.44 173.065C141.412 173.257 141.349 173.44 141.256 173.606C141.162 173.771 141.04 173.915 140.895 174.029C140.751 174.143 140.587 174.225 140.413 174.27C140.239 174.315 140.059 174.322 139.883 174.292C139.707 174.261 139.538 174.193 139.386 174.091C139.234 173.989 139.101 173.856 138.997 173.699C138.892 173.541 138.817 173.363 138.775 173.174C138.734 172.985 138.727 172.789 138.755 172.597L151.187 89.5896L135.668 107.117C135.518 107.284 135.334 107.41 135.131 107.483C134.928 107.557 134.711 107.577 134.5 107.541C134.29 107.506 134.09 107.418 133.917 107.284C133.745 107.149 133.604 106.972 133.506 106.767L123.438 85.2077L112.228 105.876C112.127 106.062 111.989 106.222 111.824 106.343C111.659 106.464 111.472 106.544 111.275 106.577C111.079 106.61 110.879 106.596 110.689 106.536C110.498 106.475 110.323 106.37 110.174 106.226L92.2123 88.9178L106.724 172.612C106.791 172.992 106.717 173.385 106.518 173.705C106.32 174.025 106.012 174.247 105.664 174.321L105.409 174.394Z" fill="white"/>
<path d="M45.0381 162.475C24.579 162.475 11.047 157.159 7.57001 146.978C2.20016 131.276 21.7867 107.395 58.6775 84.6674C58.8308 84.5715 59.0001 84.5094 59.1755 84.4847C59.351 84.4599 59.5292 84.473 59.6999 84.5232C59.8707 84.5734 60.0307 84.6597 60.1709 84.7771C60.311 84.8946 60.4285 85.041 60.5166 85.2078C60.6048 85.3747 60.6619 85.5589 60.6846 85.7497C60.7073 85.9406 60.6953 86.1345 60.6492 86.3203C60.6031 86.5061 60.5238 86.6802 60.4158 86.8327C60.3078 86.9852 60.1733 87.113 60.0199 87.2089C24.8877 108.855 5.28782 131.904 10.0938 145.956C14.8998 160.007 43.1586 163.483 82.2108 155.099C100.273 151.144 118.011 145.605 135.251 138.536C151.276 132.112 166.842 124.408 181.821 115.487C218.739 93.329 239.373 69.6375 234.419 55.1334C229.747 41.4765 203.22 37.7519 165.188 45.391C164.832 45.4607 164.465 45.3737 164.168 45.1491C163.871 44.9245 163.668 44.5807 163.604 44.1933C163.54 43.8059 163.62 43.4067 163.827 43.0835C164.033 42.7602 164.349 42.5395 164.705 42.4697C204.71 34.4363 231.707 38.7744 236.929 54.0672C242.474 70.251 221.854 94.7604 183.124 117.999C168.012 126.996 152.307 134.759 136.137 141.223C118.767 148.349 100.894 153.933 82.6941 157.918C70.3032 160.732 57.6945 162.258 45.0381 162.475Z" fill="#093F68"/>
<path d="M199.448 162.49C186.724 162.293 174.046 160.767 161.591 157.933C143.451 153.945 125.637 148.371 108.322 141.267C92.1573 134.79 76.4528 127.028 61.3357 118.043C22.6326 94.7896 2.02581 70.2948 7.55674 54.111C12.7923 38.7744 39.7758 34.4509 79.8751 42.5428C80.0514 42.5783 80.2195 42.6512 80.3699 42.7574C80.5203 42.8636 80.65 43.0009 80.7516 43.1617C80.8532 43.3224 80.9247 43.5033 80.962 43.6941C80.9994 43.8849 81.0018 44.0818 80.9692 44.2736C80.9366 44.4654 80.8695 44.6484 80.7719 44.812C80.6743 44.9756 80.5481 45.1168 80.4004 45.2273C80.2527 45.3379 80.0864 45.4156 79.911 45.4563C79.7357 45.4969 79.5547 45.4995 79.3784 45.464C41.8835 37.898 14.6718 41.7102 10.0671 55.1918C5.11347 69.6959 25.7471 93.3874 62.6379 115.545C77.6289 124.463 93.2033 132.166 109.235 138.594C126.423 145.633 144.101 151.162 162.101 155.128C201.26 163.527 229.64 159.948 234.392 146.014C239.145 132.08 219.625 108.914 184.466 87.2965C184.313 87.2006 184.178 87.0728 184.07 86.9203C183.962 86.7679 183.883 86.5937 183.837 86.4079C183.791 86.2221 183.779 86.0282 183.801 85.8374C183.824 85.6465 183.881 85.4623 183.969 85.2955C184.058 85.1286 184.175 84.9822 184.315 84.8648C184.455 84.7473 184.615 84.661 184.786 84.6108C184.957 84.5606 185.135 84.5475 185.311 84.5723C185.486 84.597 185.655 84.6591 185.809 84.755C222.713 107.453 242.299 131.32 236.929 147.036C233.439 157.159 219.907 162.49 199.448 162.49Z" fill="#093F68"/>
<path d="M24.2838 168.347C29.8148 168.347 34.2986 163.469 34.2986 157.451C34.2986 151.433 29.8148 146.554 24.2838 146.554C18.7528 146.554 14.269 151.433 14.269 157.451C14.269 163.469 18.7528 168.347 24.2838 168.347Z" fill="#FFBC0E"/>
<path d="M24.2435 169.808C21.9973 169.808 19.8015 169.083 17.9338 167.725C16.0661 166.367 14.6104 164.437 13.7508 162.18C12.8912 159.922 12.6663 157.437 13.1045 155.04C13.5427 152.643 14.6244 150.441 16.2127 148.713C17.8011 146.985 19.8247 145.808 22.0278 145.331C24.2309 144.854 26.5145 145.099 28.5897 146.034C30.665 146.97 32.4387 148.553 33.6867 150.586C34.9346 152.618 35.6007 155.007 35.6007 157.451C35.5972 160.727 34.3995 163.868 32.2703 166.184C30.1412 168.501 27.2545 169.804 24.2435 169.808ZM24.2435 148.015C22.5283 148.015 20.8516 148.568 19.4254 149.605C17.9993 150.642 16.8877 152.116 16.2314 153.84C15.575 155.564 15.4032 157.461 15.7378 159.292C16.0725 161.122 16.8984 162.803 18.1113 164.123C19.3241 165.442 20.8694 166.341 22.5516 166.705C24.2339 167.069 25.9776 166.882 27.5623 166.168C29.1469 165.454 30.5013 164.245 31.4543 162.693C32.4072 161.141 32.9158 159.317 32.9158 157.451C32.9123 154.949 31.9974 152.552 30.3718 150.783C28.7462 149.014 26.5425 148.019 24.2435 148.015Z" fill="#093F68"/>
<path d="M209.812 111.441C215.343 111.441 219.827 106.562 219.827 100.545C219.827 94.5266 215.343 89.6482 209.812 89.6482C204.281 89.6482 199.797 94.5266 199.797 100.545C199.797 106.562 204.281 111.441 209.812 111.441Z" fill="#F56132"/>
<path d="M209.812 112.96C207.566 112.96 205.37 112.235 203.502 110.877C201.634 109.52 200.179 107.59 199.319 105.332C198.459 103.074 198.235 100.589 198.673 98.1921C199.111 95.7951 200.193 93.5933 201.781 91.8652C203.369 90.137 205.393 88.9601 207.596 88.4834C209.799 88.0066 212.083 88.2513 214.158 89.1865C216.233 90.1218 218.007 91.7056 219.255 93.7377C220.503 95.7698 221.169 98.1589 221.169 100.603C221.169 103.88 219.972 107.023 217.843 109.341C215.713 111.658 212.824 112.96 209.812 112.96ZM209.812 91.1672C208.097 91.1672 206.42 91.7206 204.994 92.7574C203.568 93.7942 202.456 95.2678 201.8 96.992C201.143 98.7161 200.972 100.613 201.306 102.444C201.641 104.274 202.467 105.955 203.68 107.275C204.892 108.595 206.438 109.493 208.12 109.857C209.802 110.221 211.546 110.034 213.131 109.32C214.715 108.606 216.07 107.397 217.023 105.845C217.975 104.293 218.484 102.469 218.484 100.603C218.496 99.3545 218.281 98.1158 217.851 96.9584C217.421 95.8009 216.785 94.7477 215.978 93.8595C215.172 92.9713 214.212 92.2657 213.153 91.7836C212.095 91.3014 210.959 91.0522 209.812 91.0503V91.1672Z" fill="#093F68"/>
<path d="M54.7845 47.8011C60.3155 47.8011 64.7993 42.9226 64.7993 36.9048C64.7993 30.8869 60.3155 26.0085 54.7845 26.0085C49.2535 26.0085 44.7698 30.8869 44.7698 36.9048C44.7698 42.9226 49.2535 47.8011 54.7845 47.8011Z" fill="#70CC40"/>
<path d="M54.7845 49.2617C52.5382 49.2617 50.3424 48.537 48.4747 47.1792C46.6071 45.8214 45.1514 43.8915 44.2918 41.6335C43.4322 39.3756 43.2073 36.891 43.6455 34.494C44.0837 32.097 45.1654 29.8952 46.7537 28.1671C48.342 26.4389 50.3657 25.262 52.5688 24.7852C54.7719 24.3084 57.0554 24.5531 59.1307 25.4884C61.206 26.4237 62.9797 28.0075 64.2276 30.0396C65.4756 32.0717 66.1417 34.4608 66.1417 36.9047C66.1346 40.1796 64.9358 43.3182 62.8074 45.6339C60.6791 47.9496 57.7944 49.254 54.7845 49.2617ZM54.7845 27.4691C53.0693 27.4691 51.3925 28.0225 49.9664 29.0593C48.5402 30.0961 47.4287 31.5697 46.7723 33.2939C46.1159 35.018 45.9442 36.9152 46.2788 38.7455C46.6134 40.5759 47.4394 42.2572 48.6522 43.5768C49.8651 44.8964 51.4103 45.795 53.0926 46.1591C54.7749 46.5232 56.5186 46.3363 58.1032 45.6222C59.6879 44.908 61.0423 43.6986 61.9952 42.1469C62.9482 40.5952 63.4568 38.7709 63.4568 36.9047C63.4568 35.6656 63.2325 34.4386 62.7966 33.2939C62.3608 32.1491 61.722 31.1089 60.9167 30.2327C60.1114 29.3565 59.1554 28.6615 58.1032 28.1873C57.051 27.7131 55.9233 27.4691 54.7845 27.4691Z" fill="#093F68"/>
<path d="M34.2986 202.701C33.9425 202.701 33.6011 202.547 33.3493 202.273C33.0976 201.999 32.9561 201.628 32.9561 201.24V191.834C32.9561 191.447 33.0976 191.075 33.3493 190.801C33.6011 190.527 33.9425 190.373 34.2986 190.373C34.6546 190.373 34.9961 190.527 35.2478 190.801C35.4996 191.075 35.641 191.447 35.641 191.834V201.197C35.6464 201.392 35.6157 201.587 35.5506 201.769C35.4856 201.951 35.3875 202.118 35.2623 202.258C35.1371 202.398 34.9873 202.51 34.8218 202.586C34.6562 202.662 34.4783 202.701 34.2986 202.701Z" fill="#DFEAEF"/>
<path d="M34.2986 223.238C33.9425 223.238 33.6011 223.084 33.3493 222.81C33.0976 222.536 32.9561 222.164 32.9561 221.777V212.414C32.9561 212.027 33.0976 211.655 33.3493 211.381C33.6011 211.107 33.9425 210.954 34.2986 210.954C34.6546 210.954 34.9961 211.107 35.2478 211.381C35.4996 211.655 35.641 212.027 35.641 212.414V221.777C35.641 222.164 35.4996 222.536 35.2478 222.81C34.9961 223.084 34.6546 223.238 34.2986 223.238Z" fill="#DFEAEF"/>
<path d="M48.0454 208.295H39.4402C39.0842 208.295 38.7427 208.141 38.491 207.867C38.2392 207.594 38.0978 207.222 38.0978 206.835C38.0978 206.447 38.2392 206.076 38.491 205.802C38.7427 205.528 39.0842 205.374 39.4402 205.374H48.0454C48.4014 205.374 48.7429 205.528 48.9947 205.802C49.2464 206.076 49.3879 206.447 49.3879 206.835C49.3879 207.222 49.2464 207.594 48.9947 207.867C48.7429 208.141 48.4014 208.295 48.0454 208.295Z" fill="#DFEAEF"/>
<path d="M29.1569 208.295H20.5518C20.1957 208.295 19.8542 208.141 19.6025 207.867C19.3507 207.594 19.2093 207.222 19.2093 206.835C19.2093 206.447 19.3507 206.076 19.6025 205.802C19.8542 205.528 20.1957 205.374 20.5518 205.374H29.1569C29.513 205.374 29.8545 205.528 30.1062 205.802C30.358 206.076 30.4994 206.447 30.4994 206.835C30.4994 207.222 30.358 207.594 30.1062 207.867C29.8545 208.141 29.513 208.295 29.1569 208.295Z" fill="#DFEAEF"/>
<path d="M178.694 6.84493C178.338 6.84493 177.996 6.69104 177.744 6.41712C177.493 6.1432 177.351 5.77168 177.351 5.38429V-3.97836C177.351 -4.36575 177.493 -4.73726 177.744 -5.01118C177.996 -5.2851 178.338 -5.439 178.694 -5.439C179.05 -5.439 179.391 -5.2851 179.643 -5.01118C179.895 -4.73726 180.036 -4.36575 180.036 -3.97836V5.38429C180.036 5.77168 179.895 6.1432 179.643 6.41712C179.391 6.69104 179.05 6.84493 178.694 6.84493Z" fill="#DFEAEF"/>
<path d="M178.694 27.396C178.338 27.396 177.996 27.2421 177.744 26.9682C177.493 26.6943 177.351 26.3227 177.351 25.9354V16.5581C177.351 16.1707 177.493 15.7992 177.744 15.5253C177.996 15.2514 178.338 15.0975 178.694 15.0975C179.05 15.0975 179.391 15.2514 179.643 15.5253C179.895 15.7992 180.036 16.1707 180.036 16.5581V25.9354C180.036 26.3227 179.895 26.6943 179.643 26.9682C179.391 27.2421 179.05 27.396 178.694 27.396Z" fill="#DFEAEF"/>
<path d="M192.44 12.4392H183.835C183.479 12.4392 183.138 12.2853 182.886 12.0113C182.634 11.7374 182.493 11.3659 182.493 10.9785C182.493 10.5911 182.634 10.2196 182.886 9.94569C183.138 9.67177 183.479 9.51788 183.835 9.51788H192.44C192.796 9.51788 193.138 9.67177 193.39 9.94569C193.641 10.2196 193.783 10.5911 193.783 10.9785C193.783 11.3659 193.641 11.7374 193.39 12.0113C193.138 12.2853 192.796 12.4392 192.44 12.4392Z" fill="#DFEAEF"/>
<path d="M173.552 12.4392H164.947C164.591 12.4392 164.249 12.2853 163.997 12.0113C163.746 11.7374 163.604 11.3659 163.604 10.9785C163.604 10.5911 163.746 10.2196 163.997 9.94569C164.249 9.67177 164.591 9.51788 164.947 9.51788H173.552C173.908 9.51788 174.249 9.67177 174.501 9.94569C174.753 10.2196 174.894 10.5911 174.894 10.9785C174.894 11.3659 174.753 11.7374 174.501 12.0113C174.249 12.2853 173.908 12.4392 173.552 12.4392Z" fill="#DFEAEF"/>
<path d="M201.824 190.198C201.468 190.198 201.127 190.044 200.875 189.77C200.623 189.496 200.482 189.125 200.482 188.737V180.982C200.482 180.594 200.623 180.223 200.875 179.949C201.127 179.675 201.468 179.521 201.824 179.521C202.18 179.521 202.522 179.675 202.774 179.949C203.025 180.223 203.167 180.594 203.167 180.982V188.737C203.167 189.125 203.025 189.496 202.774 189.77C202.522 190.044 202.18 190.198 201.824 190.198Z" fill="#DFEAEF"/>
<path d="M201.824 207.214C201.468 207.214 201.127 207.061 200.875 206.787C200.623 206.513 200.482 206.141 200.482 205.754V197.998C200.482 197.61 200.623 197.239 200.875 196.965C201.127 196.691 201.468 196.537 201.824 196.537C202.18 196.537 202.522 196.691 202.774 196.965C203.025 197.239 203.167 197.61 203.167 197.998V205.754C203.167 206.141 203.025 206.513 202.774 206.787C202.522 207.061 202.18 207.214 201.824 207.214Z" fill="#DFEAEF"/>
<path d="M213.208 194.828H206.08C205.724 194.828 205.382 194.674 205.131 194.4C204.879 194.127 204.737 193.755 204.737 193.368C204.737 192.98 204.879 192.609 205.131 192.335C205.382 192.061 205.724 191.907 206.08 191.907H213.208C213.564 191.907 213.906 192.061 214.158 192.335C214.409 192.609 214.551 192.98 214.551 193.368C214.551 193.755 214.409 194.127 214.158 194.4C213.906 194.674 213.564 194.828 213.208 194.828Z" fill="#DFEAEF"/>
<path d="M197.569 194.828H190.44C190.084 194.828 189.743 194.674 189.491 194.4C189.239 194.127 189.098 193.755 189.098 193.368C189.098 192.98 189.239 192.609 189.491 192.335C189.743 192.061 190.084 191.907 190.44 191.907H197.569C197.925 191.907 198.266 192.061 198.518 192.335C198.77 192.609 198.911 192.98 198.911 193.368C198.911 193.755 198.77 194.127 198.518 194.4C198.266 194.674 197.925 194.828 197.569 194.828Z" fill="#DFEAEF"/>
</g>
<defs>
<clipPath id="clip0">
<rect width="252" height="265" fill="white" transform="translate(0.201233 0.533997)"/>
</clipPath>
</defs>
</svg>
